<svg version="1.2" xmlns="http://www.w3.org/2000/svg" viewBox="0 0 512 512" width="512" height="512"><style>.a{fill:#667b89}.b{fill:#fff}</style><path fill-rule="evenodd" class="a" d="m256 512c-141.6 0-256-114.4-256-256 0-141.6 114.4-256 256-256 141.6 0 256 114.4 256 256 0 141.6-114.4 256-256 256z"/><path class="b" d="m256.1 256.1c34.5 0 62.4-27.9 62.4-62.4 0-34.5-27.9-62.4-62.4-62.4-34.5 0-62.4 27.9-62.4 62.4 0 34.5 27.9 62.4 62.4 62.4zm0 31.2c-41.6 0-124.8 20.9-124.8 62.4v31.1h249.5v-31.1c0-41.5-83.1-62.4-124.7-62.4z"/></svg>