<svg version="1.2" xmlns="http://www.w3.org/2000/svg" viewBox="0 0 512 512" width="512" height="512"><style>.a{fill:#667b89}.b{fill:#fff}</style><path fill-rule="evenodd" class="a" d="m256 512c-141.6 0-256-114.4-256-256 0-141.6 114.4-256 256-256 141.6 0 256 114.4 256 256 0 141.6-114.4 256-256 256z"/><path fill-rule="evenodd" class="b" d="m196.7 284l15-15c-12.5-12.5-18.7-28.7-18.7-43.6 0-16.2 6.2-32.4 18.7-43.7l-15-14.9c-16.2 16.2-24.9 37.4-24.9 58.6 0 21.2 8.7 42.4 24.9 58.6zm147.1-147.1l-15 14.9c19.9 20 29.9 47.4 29.9 73.6 0 26.2-10 53.6-29.9 73.5l15 15c24.9-24.9 36.1-56.1 36.1-88.5 0-32.4-12.5-63.6-36.1-88.5zm-162 14.9l-15-14.9c-23.7 24.9-36.1 56.1-36.1 88.5 0 32.4 12.4 63.6 36.1 88.5l15-15c-20-19.9-29.9-47.3-29.9-73.5 0-26.2 9.9-53.6 29.9-73.6zm132 132.2c16.2-16.2 25-37.4 25-58.6-1.3-21.2-8.8-42.4-25-58.6l-14.9 14.9c12.5 12.5 18.7 28.7 18.7 43.7 0 16.2-6.2 32.4-18.7 43.6zm-27.4-58.6c0-17.2-14-31.1-31.2-31.1-17.2 0-31.1 13.9-31.1 31.1 0 9.5 4.2 17.7 10.8 23.5l-42 126.1h24.9l8.4-24.9h58.2l8.2 24.9h24.9l-42-126.1c6.6-5.8 10.9-14 10.9-23.5zm-52 99.7l20.8-62.3 20.8 62.3z"/></svg>