<svg version="1.2" xmlns="http://www.w3.org/2000/svg" viewBox="0 0 512 512" width="512" height="512"><style>.a{fill:#667b89}.b{fill:#fff}</style><path fill-rule="evenodd" class="a" d="m256 512c-141.6 0-256-114.4-256-256 0-141.6 114.4-256 256-256 141.6 0 256 114.4 256 256 0 141.6-114.4 256-256 256z"/><path class="b" d="m256 265.4c20.4 0 38.4 4.9 53 11.2 13.5 6 22 19.5 22 34.2v20.2h-150v-20.1c0-14.8 8.5-28.3 22-34.1 14.6-6.5 32.6-11.4 53-11.4zm-100 3.1c13.8 0 25-11.2 25-25 0-13.7-11.2-25-25-25-13.7 0-25 11.3-25 25 0 13.8 11.3 25 25 25zm14.1 13.8c-4.6-0.8-9.2-1.3-14.1-1.3-12.4 0-24.1 2.6-34.7 7.3-9.3 4-15.3 13-15.3 23.1v19.6h56.3v-20.1c0-10.4 2.8-20.1 7.8-28.6zm185.9-13.8c13.8 0 25-11.2 25-25 0-13.8-11.2-25-25-25-13.8 0-25 11.2-25 25 0 13.8 11.2 25 25 25zm50 42.9c0-10.1-6-19.1-15.2-23.1-10.7-4.7-22.4-7.3-34.8-7.3-4.9 0-9.5 0.5-14.1 1.3 5 8.5 7.8 18.2 7.8 28.6v20.1h56.3zm-150-130.4c20.8 0 37.5 16.8 37.5 37.5 0 20.8-16.8 37.5-37.5 37.5-20.7 0-37.5-16.7-37.5-37.5 0-20.7 16.8-37.5 37.5-37.5z"/></svg>