<svg version="1.2" xmlns="http://www.w3.org/2000/svg" viewBox="0 0 512 512" width="512" height="512"><style>.a{fill:#667b89}.b{fill:#fff}</style><path fill-rule="evenodd" class="a" d="m256 512c-141.6 0-256-114.4-256-256 0-141.6 114.4-256 256-256 141.6 0 256 114.4 256 256 0 141.6-114.4 256-256 256z"/><path class="b" d="m381 242.1v-27.8h-27.8v-27.7c0-15.3-12.5-27.8-27.8-27.8h-27.7v-27.8h-27.8v27.8h-27.8v-27.8h-27.8v27.8h-27.7c-15.3 0-27.8 12.5-27.8 27.8v27.7h-27.8v27.8h27.8v27.8h-27.8v27.8h27.8v27.7c0 15.3 12.5 27.8 27.8 27.8h27.7v27.8h27.8v-27.8h27.8v27.8h27.8v-27.8h27.7c15.3 0 27.8-12.5 27.8-27.8v-27.7h27.8v-27.8h-27.8v-27.8zm-55.5 83.3h-138.9v-138.8h138.9zm-27.8-111.2h-83.3v83.4h83.3zm-27.8 55.5h-27.8v-27.7h27.8z"/></svg>